# xmcd
#
# Track frame offsets:
#	150
#	16089
#	32534
#	48615
#	62341
#	77383
#	96046
#	113043
#	130746
#	143945
#	160099
#
# Disc length: 2335 seconds
#
# Revision: 1
# Processed by: cddbd v1.5.2PL0 Copyright (c) Steve Scherf et al.
# Submitted via: audiograbber 1.83.01
#
DISCID=7b091d0b
DTITLE=Steve Holy - Love Don't Run
DYEAR=2011
DGENRE=Country
TTITLE0=If It Gets You Where You Wanna Go
TTITLE1=Love Don't Run
TTITLE2=Hauled Off And Kissed Me
TTITLE3=Until The Rain Stops
TTITLE4=Heart Of A Hero
TTITLE5=Every Day Should End Like This
TTITLE6=Wonders
TTITLE7=Let The Sun Shine In
TTITLE8=Like I'm Famous
TTITLE9=Help Me Make Through The Night
TTITLE10=Good Morning Beautiful (Acoustic Version)
EXTD=
EXTT0=
EXTT1=
EXTT2=
EXTT3=
EXTT4=
EXTT5=
EXTT6=
EXTT7=
EXTT8=
EXTT9=
EXTT10=
PLAYORDER=
